<?xml version="1.0"?>
<!DOCTYPE svg PUBLIC '-//W3C//DTD SVG 1.0//EN'
    'http://www.w3.org/TR/2001/REC-SVG-20010904/DTD/svg10.dtd' >

<svg fill-opacity="1" xmlns:xlink="http://www.w3.org/1999/xlink"
     color-rendering="auto" color-interpolation="auto" text-rendering="auto"
     stroke="black" stroke-linecap="square" width="277" stroke-miterlimit="10"
     shape-rendering="auto" stroke-opacity="1" fill="black"
     stroke-dasharray="none" font-weight="normal" stroke-width="1" height="3011"
     xmlns="http://www.w3.org/2000/svg" font-family="&apos;Dialog&apos;"
     font-style="normal" stroke-linejoin="miter" font-size="12"
     stroke-dashoffset="0" image-rendering="auto">
    <!-- Generated by TreeGraph 2.10.0-637 beta with Apache Batik SVG Generator
    <http://treegraph.bioinfweb.info/> -->
    <defs id="genericDefs"/>
    <g>
        <g fill="white" stroke="white">
            <rect x="0" width="277" height="3011" y="0" stroke="none"/>
            <path fill="black"
                  d="M5 1590.6896 L18 1590.6896 L18 1591.5399 L5 1591.5399 Z"
                  stroke="none"/>
        </g>
        <g stroke-linecap="butt" stroke-linejoin="bevel" stroke-width="0.8504">
            <path fill="none"
                  d="M21 676.0569 L20.6929 676.0569 L20.2677 676.0569 C18.7022 676.0569 17.4331 677.326 17.4331 678.8915 L17.4331 679.7419 L17.4331 2501.6372 L17.4331 2502.4875 C17.4331 2504.053 18.7022 2505.322 20.2677 2505.322 L20.6929 2505.322 L21 2505.322"/>
            <path d="M20.6929 675.6317 L33 675.6317 L33 676.4821 L20.6929 676.4821 Z"
                  stroke-width="1" stroke-linecap="square" stroke="none"
                  stroke-linejoin="miter"/>
            <path fill="none"
                  d="M36 187.4941 L35.7165 187.4941 L35.2913 187.4941 C33.7258 187.4941 32.4567 188.7632 32.4567 190.3288 L32.4567 191.1792 L32.4567 1160.9347 L32.4567 1161.785 C32.4567 1163.3506 33.7258 1164.6198 35.2913 1164.6198 L35.7165 1164.6198 L36 1164.6198"/>
            <path d="M35.7165 187.0689 L108 187.0689 L108 187.9193 L35.7165 187.9193 Z"
                  stroke-width="1" stroke-linecap="square" stroke="none"
                  stroke-linejoin="miter"/>
            <path fill="none"
                  d="M111 110.9055 L110.8346 110.9055 L110.4094 110.9055 C108.8439 110.9055 107.5748 112.1746 107.5748 113.7402 L107.5748 114.5906 L107.5748 260.3976 L107.5748 261.248 C107.5748 262.8136 108.8439 264.0827 110.4094 264.0827 L110.8346 264.0827 L111 264.0827"/>
            <path d="M110.8346 110.4803 L138 110.4803 L138 111.3307 L110.8346 111.3307 Z"
                  stroke-width="1" stroke-linecap="square" stroke="none"
                  stroke-linejoin="miter"/>
            <path fill="none"
                  d="M141 75.8268 L140.8819 75.8268 L140.4567 75.8268 C138.8912 75.8268 137.622 77.0959 137.622 78.6614 L137.622 79.5118 L137.622 142.2992 L137.622 143.1496 C137.622 144.7151 138.8912 145.9843 140.4567 145.9843 L140.8819 145.9843 L141 145.9843"/>
            <path d="M140.8819 75.4016 L153 75.4016 L153 76.252 L140.8819 76.252 Z"
                  stroke-width="1" stroke-linecap="square" stroke="none"
                  stroke-linejoin="miter"/>
            <path fill="none"
                  d="M156 43.0866 L155.9055 43.0866 L155.4803 43.0866 C153.9148 43.0866 152.6457 44.3557 152.6457 45.9213 L152.6457 46.7717 L152.6457 104.8819 L152.6457 105.7323 C152.6457 107.2978 153.9148 108.5669 155.4803 108.5669 L155.9055 108.5669 L156 108.5669"/>
            <path d="M155.9055 42.6614 L168 42.6614 L168 43.5118 L155.9055 43.5118 Z"
                  stroke-width="1" stroke-linecap="square" stroke="none"
                  stroke-linejoin="miter"/>
            <path fill="none"
                  d="M171 15.0236 L170.9291 15.0236 L170.5039 15.0236 C168.9384 15.0236 167.6693 16.2927 167.6693 17.8583 L167.6693 18.7087 L167.6693 67.4646 L167.6693 68.315 C167.6693 69.8805 168.9384 71.1496 170.5039 71.1496 L170.9291 71.1496 L171 71.1496"/>
            <path d="M170.9291 14.5984 L182.2677 14.5984 L182.2677 15.4488 L170.9291 15.4488 Z"
                  stroke-width="1" stroke-linecap="square" stroke="none"
                  stroke-linejoin="miter"/>
        </g>
        <g font-family="&apos;Arial&apos;" font-size="14">
            <text x="185.1024" xml:space="preserve" y="19.5197" stroke="none">&gt;HNsq0160</text><path d="M168 33.3071 L182.2677 33.3071 L182.2677 34.1575 L168 34.1575 Z"
                  stroke="none"/>
            <text x="185.1024" xml:space="preserve" y="38.2283" stroke="none"></text>
            <path d="M168 52.0158 L182.2677 52.0158 L182.2677 52.8661 L168 52.8661 Z"
                  stroke="none"/>
            <text x="185.1024" xml:space="preserve" y="56.937" stroke="none">&gt;HNsq0225</text><path d="M170.9291 70.7244 L182.2677 70.7244 L182.2677 71.5748 L170.9291 71.5748 Z"
                  stroke="none"/>
            <text x="185.1024" xml:space="preserve" y="75.6457" stroke="none"></text>
            <path d="M153 89.4331 L182.2677 89.4331 L182.2677 90.2835 L153 90.2835 Z"
                  stroke="none"/>
            <text x="185.1024" xml:space="preserve" y="94.3543" stroke="none">&gt;HNsq0213</text><path d="M155.9055 108.1417 L182.2677 108.1417 L182.2677 108.9921 L155.9055 108.9921 Z"
                  stroke="none"/>
            <text x="185.1024" xml:space="preserve" y="113.063" stroke="none"></text>
            <path d="M138 126.8504 L182.2677 126.8504 L182.2677 127.7008 L138 127.7008 Z"
                  stroke="none"/>
            <text x="185.1024" xml:space="preserve" y="131.7717" stroke="none">&gt;HNsq0182</text><path d="M140.8819 145.5591 L182.2677 145.5591 L182.2677 146.4095 L140.8819 146.4095 Z"
                  stroke="none"/>
            <text x="185.1024" xml:space="preserve" y="150.4803" stroke="none"></text>
            <path d="M110.8346 263.6575 L123 263.6575 L123 264.5079 L110.8346 264.5079 Z"
                  stroke="none"/>
            <path fill="none"
                  d="M126 192.7559 L125.8583 192.7559 L125.4331 192.7559 C123.8675 192.7559 122.5984 194.025 122.5984 195.5905 L122.5984 196.4409 L122.5984 331.7244 L122.5984 332.5748 C122.5984 334.1404 123.8675 335.4095 125.4331 335.4095 L125.8583 335.4095 L126 335.4095"
                  stroke-width="0.8504" stroke-linecap="butt"
                  stroke-linejoin="bevel"/>
            <path d="M125.8583 192.3307 L168 192.3307 L168 193.1811 L125.8583 193.1811 Z"
                  stroke="none"/>
            <path fill="none"
                  d="M171 164.6929 L170.9291 164.6929 L170.5039 164.6929 C168.9384 164.6929 167.6693 165.962 167.6693 167.5276 L167.6693 168.378 L167.6693 217.1339 L167.6693 217.9843 C167.6693 219.5498 168.9384 220.8189 170.5039 220.8189 L170.9291 220.8189 L171 220.8189"
                  stroke-width="0.8504" stroke-linecap="butt"
                  stroke-linejoin="bevel"/>
            <path d="M170.9291 164.2677 L182.2677 164.2677 L182.2677 165.1181 L170.9291 165.1181 Z"
                  stroke="none"/>
            <text x="185.1024" xml:space="preserve" y="169.189" stroke="none">&gt;HNsq0211</text><path d="M168 182.9764 L182.2677 182.9764 L182.2677 183.8268 L168 183.8268 Z"
                  stroke="none"/>
            <text x="185.1024" xml:space="preserve" y="187.8976" stroke="none"></text>
            <path d="M168 201.685 L182.2677 201.685 L182.2677 202.5354 L168 202.5354 Z"
                  stroke="none"/>
            <text x="185.1024" xml:space="preserve" y="206.6063" stroke="none">&gt;HNsq0190</text><path d="M170.9291 220.3937 L182.2677 220.3937 L182.2677 221.2441 L170.9291 221.2441 Z"
                  stroke="none"/>
            <text x="185.1024" xml:space="preserve" y="225.315" stroke="none"></text>
            <path d="M125.8583 334.9843 L138 334.9843 L138 335.8347 L125.8583 335.8347 Z"
                  stroke="none"/>
            <path fill="none"
                  d="M141 300.3307 L140.8819 300.3307 L140.4567 300.3307 C138.8912 300.3307 137.622 301.5998 137.622 303.1654 L137.622 304.0157 L137.622 366.8032 L137.622 367.6536 C137.622 369.2191 138.8912 370.4882 140.4567 370.4882 L140.8819 370.4882 L141 370.4882"
                  stroke-width="0.8504" stroke-linecap="butt"
                  stroke-linejoin="bevel"/>
            <path d="M140.8819 299.9055 L153 299.9055 L153 300.7559 L140.8819 300.7559 Z"
                  stroke="none"/>
            <path fill="none"
                  d="M156 267.5905 L155.9055 267.5905 L155.4803 267.5905 C153.9148 267.5905 152.6457 268.8596 152.6457 270.4252 L152.6457 271.2756 L152.6457 329.3858 L152.6457 330.2362 C152.6457 331.8018 153.9148 333.0709 155.4803 333.0709 L155.9055 333.0709 L156 333.0709"
                  stroke-width="0.8504" stroke-linecap="butt"
                  stroke-linejoin="bevel"/>
            <path d="M155.9055 267.1653 L168 267.1653 L168 268.0157 L155.9055 268.0157 Z"
                  stroke="none"/>
            <path fill="none"
                  d="M171 239.5276 L170.9291 239.5276 L170.5039 239.5276 C168.9384 239.5276 167.6693 240.7967 167.6693 242.3622 L167.6693 243.2126 L167.6693 291.9685 L167.6693 292.8189 C167.6693 294.3844 168.9384 295.6535 170.5039 295.6535 L170.9291 295.6535 L171 295.6535"
                  stroke-width="0.8504" stroke-linecap="butt"
                  stroke-linejoin="bevel"/>
            <path d="M170.9291 239.1024 L182.2677 239.1024 L182.2677 239.9528 L170.9291 239.9528 Z"
                  stroke="none"/>
            <text x="185.1024" xml:space="preserve" y="244.0236" stroke="none">&gt;HNsq0205</text><path d="M168 257.811 L182.2677 257.811 L182.2677 258.6614 L168 258.6614 Z"
                  stroke="none"/>
            <text x="185.1024" xml:space="preserve" y="262.7323" stroke="none"></text>
            <path d="M168 276.5197 L182.2677 276.5197 L182.2677 277.3701 L168 277.3701 Z"
                  stroke="none"/>
            <text x="185.1024" xml:space="preserve" y="281.441" stroke="none">&gt;HNsq0195</text><path d="M170.9291 295.2284 L182.2677 295.2284 L182.2677 296.0788 L170.9291 296.0788 Z"
                  stroke="none"/>
            <text x="185.1024" xml:space="preserve" y="300.1497" stroke="none"></text>
            <path d="M153 313.937 L182.2677 313.937 L182.2677 314.7874 L153 314.7874 Z"
                  stroke="none"/>
            <text x="185.1024" xml:space="preserve" y="318.8582" stroke="none">&gt;HNsq0173</text><path d="M155.9055 332.6457 L182.2677 332.6457 L182.2677 333.4961 L155.9055 333.4961 Z"
                  stroke="none"/>
            <text x="185.1024" xml:space="preserve" y="337.5669" stroke="none"></text>
            <path d="M138 351.3543 L182.2677 351.3543 L182.2677 352.2047 L138 352.2047 Z"
                  stroke="none"/>
            <text x="185.1024" xml:space="preserve" y="356.2756" stroke="none">&gt;HNsq0152</text><path d="M140.8819 370.063 L182.2677 370.063 L182.2677 370.9134 L140.8819 370.9134 Z"
                  stroke="none"/>
            <text x="185.1024" xml:space="preserve" y="374.9843" stroke="none"></text>
            <path d="M35.7165 1164.1946 L48 1164.1946 L48 1165.0449 L35.7165 1165.0449 Z"
                  stroke="none"/>
            <path fill="none"
                  d="M51 858.5943 L50.7402 858.5943 L50.315 858.5943 C48.7494 858.5943 47.4803 859.8634 47.4803 861.429 L47.4803 862.2794 L47.4803 1466.9603 L47.4803 1467.8107 C47.4803 1469.3762 48.7494 1470.6454 50.315 1470.6454 L50.7402 1470.6454 L51 1470.6454"
                  stroke-width="0.8504" stroke-linecap="butt"
                  stroke-linejoin="bevel"/>
            <path d="M50.7402 858.1691 L63 858.1691 L63 859.0195 L50.7402 859.0195 Z"
                  stroke="none"/>
            <path fill="none"
                  d="M66 579.3528 L65.7638 579.3528 L65.3386 579.3528 C63.773 579.3528 62.5039 580.6219 62.5039 582.1875 L62.5039 583.0379 L62.5039 1134.1506 L62.5039 1135.0011 C62.5039 1136.5667 63.773 1137.8358 65.3386 1137.8358 L65.7638 1137.8358 L66 1137.8358"
                  stroke-width="0.8504" stroke-linecap="butt"
                  stroke-linejoin="bevel"/>
            <path d="M65.7638 578.9277 L78 578.9277 L78 579.778 L65.7638 579.778 Z"
                  stroke="none"/>
            <path fill="none"
                  d="M81 521.3268 L80.7874 521.3268 L80.3622 521.3268 C78.7967 521.3268 77.5275 522.5959 77.5275 524.1614 L77.5275 525.0118 L77.5275 633.694 L77.5275 634.5443 C77.5275 636.1098 78.7967 637.379 80.3622 637.379 L80.7874 637.379 L81 637.379"
                  stroke-width="0.8504" stroke-linecap="butt"
                  stroke-linejoin="bevel"/>
            <path d="M80.7874 520.9016 L123 520.9016 L123 521.752 L80.7874 521.752 Z"
                  stroke="none"/>
            <path fill="none"
                  d="M126 485.0788 L125.8583 485.0788 L125.4331 485.0788 C123.8675 485.0788 122.5984 486.3479 122.5984 487.9134 L122.5984 488.7638 L122.5984 553.8898 L122.5984 554.7402 C122.5984 556.3057 123.8675 557.5748 125.4331 557.5748 L125.8583 557.5748 L126 557.5748"
                  stroke-width="0.8504" stroke-linecap="butt"
                  stroke-linejoin="bevel"/>
            <path d="M125.8583 484.6536 L138 484.6536 L138 485.504 L125.8583 485.504 Z"
                  stroke="none"/>
            <path fill="none"
                  d="M141 450 L140.8819 450 L140.4567 450 C138.8912 450 137.622 451.2691 137.622 452.8347 L137.622 453.685 L137.622 516.4724 L137.622 517.3229 C137.622 518.8884 138.8912 520.1575 140.4567 520.1575 L140.8819 520.1575 L141 520.1575"
                  stroke-width="0.8504" stroke-linecap="butt"
                  stroke-linejoin="bevel"/>
            <path d="M140.8819 449.5748 L153 449.5748 L153 450.4252 L140.8819 450.4252 Z"
                  stroke="none"/>
            <path fill="none"
                  d="M156 417.2599 L155.9055 417.2599 L155.4803 417.2599 C153.9148 417.2599 152.6457 418.529 152.6457 420.0945 L152.6457 420.9449 L152.6457 479.0551 L152.6457 479.9055 C152.6457 481.4711 153.9148 482.7402 155.4803 482.7402 L155.9055 482.7402 L156 482.7402"
                  stroke-width="0.8504" stroke-linecap="butt"
                  stroke-linejoin="bevel"/>
            <path d="M155.9055 416.8347 L168 416.8347 L168 417.6851 L155.9055 417.6851 Z"
                  stroke="none"/>
            <path fill="none"
                  d="M171 389.1969 L170.9291 389.1969 L170.5039 389.1969 C168.9384 389.1969 167.6693 390.466 167.6693 392.0315 L167.6693 392.8819 L167.6693 441.6378 L167.6693 442.4882 C167.6693 444.0537 168.9384 445.3228 170.5039 445.3228 L170.9291 445.3228 L171 445.3228"
                  stroke-width="0.8504" stroke-linecap="butt"
                  stroke-linejoin="bevel"/>
            <path d="M170.9291 388.7717 L182.2677 388.7717 L182.2677 389.6221 L170.9291 389.6221 Z"
                  stroke="none"/>
            <text x="185.1024" xml:space="preserve" y="393.6929" stroke="none">&gt;HNsq0155</text><path d="M168 407.4804 L182.2677 407.4804 L182.2677 408.3308 L168 408.3308 Z"
                  stroke="none"/>
            <text x="185.1024" xml:space="preserve" y="412.4016" stroke="none"></text>
            <path d="M168 426.1891 L182.2677 426.1891 L182.2677 427.0395 L168 427.0395 Z"
                  stroke="none"/>
            <text x="185.1024" xml:space="preserve" y="431.1103" stroke="none">&gt;HNsq0163</text><path d="M170.9291 444.8977 L182.2677 444.8977 L182.2677 445.7481 L170.9291 445.7481 Z"
                  stroke="none"/>
            <text x="185.1024" xml:space="preserve" y="449.819" stroke="none"></text>
            <path d="M153 463.6063 L182.2677 463.6063 L182.2677 464.4567 L153 464.4567 Z"
                  stroke="none"/>
            <text x="185.1024" xml:space="preserve" y="468.5276" stroke="none">&gt;HNsq0118</text><path d="M155.9055 482.315 L182.2677 482.315 L182.2677 483.1654 L155.9055 483.1654 Z"
                  stroke="none"/>
            <text x="185.1024" xml:space="preserve" y="487.2362" stroke="none"></text>
            <path d="M138 501.0237 L182.2677 501.0237 L182.2677 501.8741 L138 501.8741 Z"
                  stroke="none"/>
            <text x="185.1024" xml:space="preserve" y="505.9449" stroke="none">&gt;HNsq0181</text><path d="M140.8819 519.7324 L182.2677 519.7324 L182.2677 520.5827 L140.8819 520.5827 Z"
                  stroke="none"/>
            <text x="185.1024" xml:space="preserve" y="524.6536" stroke="none"></text>
            <path d="M123 538.441 L182.2677 538.441 L182.2677 539.2913 L123 539.2913 Z"
                  stroke="none"/>
            <text x="185.1024" xml:space="preserve" y="543.3622" stroke="none">&gt;HNsq0177</text><path d="M125.8583 557.1497 L182.2677 557.1497 L182.2677 558 L125.8583 558 Z"
                  stroke="none"/>
            <text x="185.1024" xml:space="preserve" y="562.0709" stroke="none"></text>
            <path d="M80.7874 636.9537 L93 636.9537 L93 637.8041 L80.7874 637.8041 Z"
                  stroke="none"/>
            <path fill="none"
                  d="M96 576.2835 L95.811 576.2835 L95.3858 576.2835 C93.8203 576.2835 92.5512 577.5526 92.5512 579.1182 L92.5512 579.9686 L92.5512 694.7894 L92.5512 695.6398 C92.5512 697.2053 93.8203 698.4745 95.3858 698.4745 L95.811 698.4745 L96 698.4745"
                  stroke-width="0.8504" stroke-linecap="butt"
                  stroke-linejoin="bevel"/>
            <path d="M95.811 575.8583 L182.2677 575.8583 L182.2677 576.7087 L95.811 576.7087 Z"
                  stroke="none"/>
            <text x="185.1024" xml:space="preserve" y="580.7795" stroke="none">&gt;HNsq0165</text><path d="M92 594.567 L182.2677 594.567 L182.2677 595.4174 L92 595.4174 Z"
                  stroke="none"/>
            <text x="185.1024" xml:space="preserve" y="599.4882" stroke="none"></text>
            <path d="M95.811 698.0493 L108 698.0493 L108 698.8997 L95.811 698.8997 Z"
                  stroke="none"/>
            <path fill="none"
                  d="M111 613.7009 L110.8346 613.7009 L110.4094 613.7009 C108.8439 613.7009 107.5748 614.97 107.5748 616.5355 L107.5748 617.3859 L107.5748 779.5631 L107.5748 780.4135 C107.5748 781.979 108.8439 783.2482 110.4094 783.2482 L110.8346 783.2482 L111 783.2482"
                  stroke-width="0.8504" stroke-linecap="butt"
                  stroke-linejoin="bevel"/>
            <path d="M110.8346 613.2757 L182.2677 613.2757 L182.2677 614.126 L110.8346 614.126 Z"
                  stroke="none"/>
            <text x="185.1024" xml:space="preserve" y="618.1969" stroke="none">&gt;HNsq0175</text><path d="M107 631.9844 L182.2677 631.9844 L182.2677 632.8347 L107 632.8347 Z"
                  stroke="none"/>
            <text x="185.1024" xml:space="preserve" y="636.9056" stroke="none"></text>
            <path d="M110.8346 782.8229 L123 782.8229 L123 783.6733 L110.8346 783.6733 Z"
                  stroke="none"/>
            <path fill="none"
                  d="M126 747.0001 L125.8583 747.0001 L125.4331 747.0001 C123.8675 747.0001 122.5984 748.2692 122.5984 749.8347 L122.5984 750.6851 L122.5984 815.8111 L122.5984 816.6615 C122.5984 818.227 123.8675 819.4962 125.4331 819.4962 L125.8583 819.4962 L126 819.4962"
                  stroke-width="0.8504" stroke-linecap="butt"
                  stroke-linejoin="bevel"/>
            <path d="M125.8583 746.5749 L138 746.5749 L138 747.4252 L125.8583 747.4252 Z"
                  stroke="none"/>
            <path fill="none"
                  d="M141 711.9213 L140.8819 711.9213 L140.4567 711.9213 C138.8912 711.9213 137.622 713.1904 137.622 714.756 L137.622 715.6064 L137.622 778.3938 L137.622 779.2442 C137.622 780.8097 138.8912 782.0789 140.4567 782.0789 L140.8819 782.0789 L141 782.0789"
                  stroke-width="0.8504" stroke-linecap="butt"
                  stroke-linejoin="bevel"/>
            <path d="M140.8819 711.4962 L153 711.4962 L153 712.3465 L140.8819 712.3465 Z"
                  stroke="none"/>
            <path fill="none"
                  d="M156 679.1812 L155.9055 679.1812 L155.4803 679.1812 C153.9148 679.1812 152.6457 680.4503 152.6457 682.0158 L152.6457 682.8662 L152.6457 740.9764 L152.6457 741.8268 C152.6457 743.3923 153.9148 744.6615 155.4803 744.6615 L155.9055 744.6615 L156 744.6615"
                  stroke-width="0.8504" stroke-linecap="butt"
                  stroke-linejoin="bevel"/>
            <path d="M155.9055 678.756 L168 678.756 L168 679.6063 L155.9055 679.6063 Z"
                  stroke="none"/>
            <path fill="none"
                  d="M171 651.1182 L170.9291 651.1182 L170.5039 651.1182 C168.9384 651.1182 167.6693 652.3873 167.6693 653.9529 L167.6693 654.8033 L167.6693 703.5592 L167.6693 704.4095 C167.6693 705.975 168.9384 707.2442 170.5039 707.2442 L170.9291 707.2442 L171 707.2442"
                  stroke-width="0.8504" stroke-linecap="butt"
                  stroke-linejoin="bevel"/>
            <path d="M170.9291 650.6931 L182.2677 650.6931 L182.2677 651.5434 L170.9291 651.5434 Z"
                  stroke="none"/>
            <text x="185.1024" xml:space="preserve" y="655.6143" stroke="none">&gt;HNsq0179</text><path d="M168 669.4017 L182.2677 669.4017 L182.2677 670.2521 L168 670.2521 Z"
                  stroke="none"/>
            <text x="185.1024" xml:space="preserve" y="674.3229" stroke="none"></text>
            <path d="M168 688.1104 L182.2677 688.1104 L182.2677 688.9608 L168 688.9608 Z"
                  stroke="none"/>
            <text x="185.1024" xml:space="preserve" y="693.0316" stroke="none">&gt;HNsq0117</text><path d="M170.9291 706.8191 L182.2677 706.8191 L182.2677 707.6694 L170.9291 707.6694 Z"
                  stroke="none"/>
            <text x="185.1024" xml:space="preserve" y="711.7403" stroke="none"></text>
            <path d="M153 725.5276 L182.2677 725.5276 L182.2677 726.3779 L153 726.3779 Z"
                  stroke="none"/>
            <text x="185.1024" xml:space="preserve" y="730.4489" stroke="none">&gt;HNsq0180</text><path d="M155.9055 744.2362 L182.2677 744.2362 L182.2677 745.0865 L155.9055 745.0865 Z"
                  stroke="none"/>
            <text x="185.1024" xml:space="preserve" y="749.1575" stroke="none"></text>
            <path d="M138 762.9449 L182.2677 762.9449 L182.2677 763.7953 L138 763.7953 Z"
                  stroke="none"/>
            <text x="185.1024" xml:space="preserve" y="767.8663" stroke="none">&gt;HNsq0018</text><path d="M140.8819 781.6536 L182.2677 781.6536 L182.2677 782.5039 L140.8819 782.5039 Z"
                  stroke="none"/>
            <text x="185.1024" xml:space="preserve" y="786.5748" stroke="none"></text>
            <path d="M123 800.3622 L182.2677 800.3622 L182.2677 801.2126 L123 801.2126 Z"
                  stroke="none"/>
            <text x="185.1024" xml:space="preserve" y="805.2835" stroke="none">&gt;HNsq0153</text><path d="M125.8583 819.0709 L182.2677 819.0709 L182.2677 819.9212 L125.8583 819.9212 Z"
                  stroke="none"/>
            <text x="185.1024" xml:space="preserve" y="823.9921" stroke="none"></text>
            <path d="M65.7638 1137.4105 L78 1137.4105 L78 1138.2609 L65.7638 1138.2609 Z"
                  stroke="none"/>
            <path fill="none"
                  d="M81 1071.4784 L80.7874 1071.4784 L80.3622 1071.4784 C78.7967 1071.4784 77.5275 1072.7476 77.5275 1074.313 L77.5275 1075.1635 L77.5275 1200.5079 L77.5275 1201.3583 C77.5275 1202.9238 78.7967 1204.193 80.3622 1204.193 L80.7874 1204.193 L81 1204.193"
                  stroke-width="0.8504" stroke-linecap="butt"
                  stroke-linejoin="bevel"/>
            <path d="M80.7874 1071.0532 L93 1071.0532 L93 1071.9036 L80.7874 1071.9036 Z"
                  stroke="none"/>
            <path fill="none"
                  d="M96 1024.1221 L95.811 1024.1221 L95.3858 1024.1221 C93.8203 1024.1221 92.5512 1025.3912 92.5512 1026.9567 L92.5512 1027.8071 L92.5512 1115.1497 L92.5512 1116 C92.5512 1117.5656 93.8203 1118.8347 95.3858 1118.8347 L95.811 1118.8347 L96 1118.8347"
                  stroke-width="0.8504" stroke-linecap="butt"
                  stroke-linejoin="bevel"/>
            <path d="M95.811 1023.6969 L108 1023.6969 L108 1024.5472 L95.811 1024.5472 Z"
                  stroke="none"/>
            <path fill="none"
                  d="M111 966.8268 L110.8346 966.8268 L110.4094 966.8268 C108.8439 966.8268 107.5748 968.0959 107.5748 969.6615 L107.5748 970.5119 L107.5748 1077.7324 L107.5748 1078.5826 C107.5748 1080.1482 108.8439 1081.4174 110.4094 1081.4174 L110.8346 1081.4174 L111 1081.4174"
                  stroke-width="0.8504" stroke-linecap="butt"
                  stroke-linejoin="bevel"/>
            <path d="M110.8346 966.4017 L123 966.4017 L123 967.252 L110.8346 967.252 Z"
                  stroke="none"/>
            <path fill="none"
                  d="M126 889.6537 L125.8583 889.6537 L125.4331 889.6537 C123.8675 889.6537 122.5984 890.9228 122.5984 892.4883 L122.5984 893.3387 L122.5984 1040.3152 L122.5984 1041.1654 C122.5984 1042.731 123.8675 1044.0001 125.4331 1044.0001 L125.8583 1044.0001 L126 1044.0001"
                  stroke-width="0.8504" stroke-linecap="butt"
                  stroke-linejoin="bevel"/>
            <path d="M125.8583 889.2285 L138 889.2285 L138 890.0789 L125.8583 890.0789 Z"
                  stroke="none"/>
            <path fill="none"
                  d="M141 838.2048 L140.8819 838.2048 L140.4567 838.2048 C138.8912 838.2048 137.622 839.4739 137.622 841.0394 L137.622 841.8898 L137.622 937.4174 L137.622 938.2678 C137.622 939.8333 138.8912 941.1024 140.4567 941.1024 L140.8819 941.1024 L141 941.1024"
                  stroke-width="0.8504" stroke-linecap="butt"
                  stroke-linejoin="bevel"/>
            <path d="M140.8819 837.7796 L182.2677 837.7796 L182.2677 838.6299 L140.8819 838.6299 Z"
                  stroke="none"/>
            <text x="185.1024" xml:space="preserve" y="842.7009" stroke="none">&gt;HNsq0156</text><path d="M138 856.4882 L182.2677 856.4882 L182.2677 857.3386 L138 857.3386 Z"
                  stroke="none"/>
            <text x="185.1024" xml:space="preserve" y="861.4095" stroke="none"></text>
            <path d="M140.8819 940.6771 L153 940.6771 L153 941.5275 L140.8819 941.5275 Z"
                  stroke="none"/>
            <path fill="none"
                  d="M156 903.6851 L155.9055 903.6851 L155.4803 903.6851 C153.9148 903.6851 152.6457 904.9542 152.6457 906.5197 L152.6457 907.3701 L152.6457 974.8347 L152.6457 975.6851 C152.6457 977.2505 153.9148 978.5197 155.4803 978.5197 L155.9055 978.5197 L156 978.5197"
                  stroke-width="0.8504" stroke-linecap="butt"
                  stroke-linejoin="bevel"/>
            <path d="M155.9055 903.2598 L168 903.2598 L168 904.1102 L155.9055 904.1102 Z"
                  stroke="none"/>
            <path fill="none"
                  d="M171 875.6219 L170.9291 875.6219 L170.5039 875.6219 C168.9384 875.6219 167.6693 876.8911 167.6693 878.4566 L167.6693 879.307 L167.6693 928.0629 L167.6693 928.9133 C167.6693 930.4788 168.9384 931.7479 170.5039 931.7479 L170.9291 931.7479 L171 931.7479"
                  stroke-width="0.8504" stroke-linecap="butt"
                  stroke-linejoin="bevel"/>
            <path d="M170.9291 875.1968 L182.2677 875.1968 L182.2677 876.0471 L170.9291 876.0471 Z"
                  stroke="none"/>
            <text x="185.1024" xml:space="preserve" y="880.1181" stroke="none">&gt;HNsq0167</text><path d="M168 893.9054 L182.2677 893.9054 L182.2677 894.7557 L168 894.7557 Z"
                  stroke="none"/>
            <text x="185.1024" xml:space="preserve" y="898.8267" stroke="none"></text>
            <path d="M168 912.614 L182.2677 912.614 L182.2677 913.4643 L168 913.4643 Z"
                  stroke="none"/>
            <text x="185.1024" xml:space="preserve" y="917.5353" stroke="none">&gt;HNsq0006</text><path d="M170.9291 931.3226 L182.2677 931.3226 L182.2677 932.1729 L170.9291 932.1729 Z"
                  stroke="none"/>
            <text x="185.1024" xml:space="preserve" y="936.2438" stroke="none"></text>
            <path d="M155.9055 978.0945 L168 978.0945 L168 978.9449 L155.9055 978.9449 Z"
                  stroke="none"/>
            <path fill="none"
                  d="M171 950.4567 L170.9291 950.4567 L170.5039 950.4567 C168.9384 950.4567 167.6693 951.7258 167.6693 953.2913 L167.6693 954.1417 L167.6693 1002.8976 L167.6693 1003.748 C167.6693 1005.3135 168.9384 1006.5826 170.5039 1006.5826 L170.9291 1006.5826 L171 1006.5826"
                  stroke-width="0.8504" stroke-linecap="butt"
                  stroke-linejoin="bevel"/>
            <path d="M170.9291 950.0315 L182.2677 950.0315 L182.2677 950.8818 L170.9291 950.8818 Z"
                  stroke="none"/>
            <text x="185.1024" xml:space="preserve" y="954.9528" stroke="none">&gt;HNsq0169</text><path d="M168 968.7401 L182.2677 968.7401 L182.2677 969.5905 L168 969.5905 Z"
                  stroke="none"/>
            <text x="185.1024" xml:space="preserve" y="973.6614" stroke="none"></text>
            <path d="M168 987.4487 L182.2677 987.4487 L182.2677 988.299 L168 988.299 Z"
                  stroke="none"/>
            <text x="185.1024" xml:space="preserve" y="992.37" stroke="none">&gt;HNsq0178</text><path d="M170.9291 1006.1573 L182.2677 1006.1573 L182.2677 1007.0076 L170.9291 1007.0076 Z"
                  stroke="none"/>
            <text x="185.1024" xml:space="preserve" y="1011.0786" stroke="none"></text>
            <path d="M123 1024.8662 L182.2677 1024.8662 L182.2677 1025.7166 L123 1025.7166 Z"
                  stroke="none"/>
            <text x="185.1024" xml:space="preserve" y="1029.7876" stroke="none">&gt;HNsq0159</text><path d="M125.8583 1043.5748 L182.2677 1043.5748 L182.2677 1044.4252 L125.8583 1044.4252 Z"
                  stroke="none"/>
            <text x="185.1024" xml:space="preserve" y="1048.4961" stroke="none"></text>
            <path d="M107 1062.2834 L182.2677 1062.2834 L182.2677 1063.1338 L107 1063.1338 Z"
                  stroke="none"/>
            <text x="185.1024" xml:space="preserve" y="1067.2047" stroke="none">&gt;HNsq0174</text><path d="M110.8346 1080.9921 L182.2677 1080.9921 L182.2677 1081.8424 L110.8346 1081.8424 Z"
                  stroke="none"/>
            <text x="185.1024" xml:space="preserve" y="1085.9133" stroke="none"></text>
            <path d="M92 1099.7008 L182.2677 1099.7008 L182.2677 1100.5511 L92 1100.5511 Z"
                  stroke="none"/>
            <text x="185.1024" xml:space="preserve" y="1104.6221" stroke="none">&gt;HNsq0162</text><path d="M95.811 1118.4094 L182.2677 1118.4094 L182.2677 1119.2598 L95.811 1119.2598 Z"
                  stroke="none"/>
            <text x="185.1024" xml:space="preserve" y="1123.3307" stroke="none"></text>
            <path d="M80.7874 1203.7678 L123 1203.7678 L123 1204.6182 L80.7874 1204.6182 Z"
                  stroke="none"/>
            <path fill="none"
                  d="M126 1137.5433 L125.8583 1137.5433 L125.4331 1137.5433 C123.8675 1137.5433 122.5984 1138.8125 122.5984 1140.3779 L122.5984 1141.2284 L122.5984 1267.1576 L122.5984 1268.0078 C122.5984 1269.5734 123.8675 1270.8425 125.4331 1270.8425 L125.8583 1270.8425 L126 1270.8425"
                  stroke-width="0.8504" stroke-linecap="butt"
                  stroke-linejoin="bevel"/>
            <path d="M125.8583 1137.1182 L182.2677 1137.1182 L182.2677 1137.9685 L125.8583 1137.9685 Z"
                  stroke="none"/>
            <text x="185.1024" xml:space="preserve" y="1142.0393" stroke="none">&gt;HNsq0166</text><path d="M123 1155.8267 L182.2677 1155.8267 L182.2677 1156.677 L123 1156.677 Z"
                  stroke="none"/>
            <text x="185.1024" xml:space="preserve" y="1160.7479" stroke="none"></text>
            <path d="M125.8583 1270.4172 L138 1270.4172 L138 1271.2676 L125.8583 1271.2676 Z"
                  stroke="none"/>
            <path fill="none"
                  d="M141 1235.7637 L140.8819 1235.7637 L140.4567 1235.7637 C138.8912 1235.7637 137.622 1237.0328 137.622 1238.5983 L137.622 1239.4487 L137.622 1302.2361 L137.622 1303.0864 C137.622 1304.652 138.8912 1305.9211 140.4567 1305.9211 L140.8819 1305.9211 L141 1305.9211"
                  stroke-width="0.8504" stroke-linecap="butt"
                  stroke-linejoin="bevel"/>
            <path d="M140.8819 1235.3385 L153 1235.3385 L153 1236.1888 L140.8819 1236.1888 Z"
                  stroke="none"/>
            <path fill="none"
                  d="M156 1203.0236 L155.9055 1203.0236 L155.4803 1203.0236 C153.9148 1203.0236 152.6457 1204.2927 152.6457 1205.8582 L152.6457 1206.7086 L152.6457 1264.8188 L152.6457 1265.6692 C152.6457 1267.2347 153.9148 1268.5039 155.4803 1268.5039 L155.9055 1268.5039 L156 1268.5039"
                  stroke-width="0.8504" stroke-linecap="butt"
                  stroke-linejoin="bevel"/>
            <path d="M155.9055 1202.5984 L168 1202.5984 L168 1203.4487 L155.9055 1203.4487 Z"
                  stroke="none"/>
            <path fill="none"
                  d="M171 1174.9604 L170.9291 1174.9604 L170.5039 1174.9604 C168.9384 1174.9604 167.6693 1176.2296 167.6693 1177.795 L167.6693 1178.6455 L167.6693 1227.4014 L167.6693 1228.2517 C167.6693 1229.8173 168.9384 1231.0864 170.5039 1231.0864 L170.9291 1231.0864 L171 1231.0864"
                  stroke-width="0.8504" stroke-linecap="butt"
                  stroke-linejoin="bevel"/>
            <path d="M170.9291 1174.5353 L182.2677 1174.5353 L182.2677 1175.3856 L170.9291 1175.3856 Z"
                  stroke="none"/>
            <text x="185.1024" xml:space="preserve" y="1179.4565" stroke="none">&gt;HNsq0171</text><path d="M168 1193.2439 L182.2677 1193.2439 L182.2677 1194.0942 L168 1194.0942 Z"
                  stroke="none"/>
            <text x="185.1024" xml:space="preserve" y="1198.1652" stroke="none"></text>
            <path d="M168 1211.9525 L182.2677 1211.9525 L182.2677 1212.8029 L168 1212.8029 Z"
                  stroke="none"/>
            <text x="185.1024" xml:space="preserve" y="1216.8738" stroke="none">&gt;HNsq0030</text><path d="M170.9291 1230.6611 L182.2677 1230.6611 L182.2677 1231.5115 L170.9291 1231.5115 Z"
                  stroke="none"/>
            <text x="185.1024" xml:space="preserve" y="1235.5823" stroke="none"></text>
            <path d="M153 1249.37 L182.2677 1249.37 L182.2677 1250.2203 L153 1250.2203 Z"
                  stroke="none"/>
            <text x="185.1024" xml:space="preserve" y="1254.2913" stroke="none">&gt;HNsq0172</text><path d="M155.9055 1268.0786 L182.2677 1268.0786 L182.2677 1268.929 L155.9055 1268.929 Z"
                  stroke="none"/>
            <text x="185.1024" xml:space="preserve" y="1272.9999" stroke="none"></text>
            <path d="M138 1286.7874 L182.2677 1286.7874 L182.2677 1287.6377 L138 1287.6377 Z"
                  stroke="none"/>
            <text x="185.1024" xml:space="preserve" y="1291.7085" stroke="none">&gt;HNsq0183</text><path d="M140.8819 1305.4958 L182.2677 1305.4958 L182.2677 1306.3462 L140.8819 1306.3462 Z"
                  stroke="none"/>
            <text x="185.1024" xml:space="preserve" y="1310.4171" stroke="none"></text>
            <path d="M50.7402 1470.2198 L78 1470.2198 L78 1471.0702 L50.7402 1471.0702 Z"
                  stroke="none"/>
            <path fill="none"
                  d="M81 1324.6299 L80.7874 1324.6299 L80.3622 1324.6299 C78.7967 1324.6299 77.5275 1325.899 77.5275 1327.4645 L77.5275 1328.3149 L77.5275 1612.9753 L77.5275 1613.8257 C77.5275 1615.3912 78.7967 1616.6604 80.3622 1616.6604 L80.7874 1616.6604 L81 1616.6604"
                  stroke-width="0.8504" stroke-linecap="butt"
                  stroke-linejoin="bevel"/>
            <path d="M80.7874 1324.2047 L182.2677 1324.2047 L182.2677 1325.0551 L80.7874 1325.0551 Z"
                  stroke="none"/>
            <text x="185.1024" xml:space="preserve" y="1329.126" stroke="none">&gt;HNsq0157</text><path d="M77 1342.9133 L182.2677 1342.9133 L182.2677 1343.7637 L77 1343.7637 Z"
                  stroke="none"/>
            <text x="185.1024" xml:space="preserve" y="1347.8346" stroke="none"></text>
            <path d="M80.7874 1616.2351 L93 1616.2351 L93 1617.0854 L80.7874 1617.0854 Z"
                  stroke="none"/>
            <path fill="none"
                  d="M96 1553.2263 L95.811 1553.2263 L95.3858 1553.2263 C93.8203 1553.2263 92.5512 1554.4955 92.5512 1556.0609 L92.5512 1556.9114 L92.5512 1676.4094 L92.5512 1677.2598 C92.5512 1678.8253 93.8203 1680.0945 95.3858 1680.0945 L95.811 1680.0945 L96 1680.0945"
                  stroke-width="0.8504" stroke-linecap="butt"
                  stroke-linejoin="bevel"/>
            <path d="M95.811 1552.801 L108 1552.801 L108 1553.6514 L95.811 1553.6514 Z"
                  stroke="none"/>
            <path fill="none"
                  d="M111 1463.7755 L110.8346 1463.7755 L110.4094 1463.7755 C108.8439 1463.7755 107.5748 1465.0447 107.5748 1466.6101 L107.5748 1467.4606 L107.5748 1638.9921 L107.5748 1639.8424 C107.5748 1641.408 108.8439 1642.6771 110.4094 1642.6771 L110.8346 1642.6771 L111 1642.6771"
                  stroke-width="0.8504" stroke-linecap="butt"
                  stroke-linejoin="bevel"/>
            <path d="M110.8346 1463.3502 L123 1463.3502 L123 1464.2006 L110.8346 1464.2006 Z"
                  stroke="none"/>
            <path fill="none"
                  d="M126 1390.1102 L125.8583 1390.1102 L125.4331 1390.1102 C123.8675 1390.1102 122.5984 1391.3794 122.5984 1392.9448 L122.5984 1393.7953 L122.5984 1533.756 L122.5984 1534.6063 C122.5984 1536.1719 123.8675 1537.441 125.4331 1537.441 L125.8583 1537.441 L126 1537.441"
                  stroke-width="0.8504" stroke-linecap="butt"
                  stroke-linejoin="bevel"/>
            <path d="M125.8583 1389.6849 L168 1389.6849 L168 1390.5353 L125.8583 1390.5353 Z"
                  stroke="none"/>
            <path fill="none"
                  d="M171 1362.0471 L170.9291 1362.0471 L170.5039 1362.0471 C168.9384 1362.0471 167.6693 1363.3163 167.6693 1364.8817 L167.6693 1365.7322 L167.6693 1414.488 L167.6693 1415.3384 C167.6693 1416.9039 168.9384 1418.1731 170.5039 1418.1731 L170.9291 1418.1731 L171 1418.1731"
                  stroke-width="0.8504" stroke-linecap="butt"
                  stroke-linejoin="bevel"/>
            <path d="M170.9291 1361.6219 L182.2677 1361.6219 L182.2677 1362.4723 L170.9291 1362.4723 Z"
                  stroke="none"/>
            <text x="185.1024" xml:space="preserve" y="1366.5432" stroke="none">&gt;HNsq0158</text><path d="M168 1380.3306 L182.2677 1380.3306 L182.2677 1381.1809 L168 1381.1809 Z"
                  stroke="none"/>
            <text x="185.1024" xml:space="preserve" y="1385.2517" stroke="none"></text>
            <path d="M168 1399.0391 L182.2677 1399.0391 L182.2677 1399.8894 L168 1399.8894 Z"
                  stroke="none"/>
            <text x="185.1024" xml:space="preserve" y="1403.9603" stroke="none">&gt;HNsq0184</text><path d="M170.9291 1417.7477 L182.2677 1417.7477 L182.2677 1418.598 L170.9291 1418.598 Z"
                  stroke="none"/>
            <text x="185.1024" xml:space="preserve" y="1422.6689" stroke="none"></text>
            <path d="M125.8583 1537.0157 L138 1537.0157 L138 1537.8661 L125.8583 1537.8661 Z"
                  stroke="none"/>
            <path fill="none"
                  d="M141 1497.6851 L140.8819 1497.6851 L140.4567 1497.6851 C138.8912 1497.6851 137.622 1498.9542 137.622 1500.5197 L137.622 1501.3701 L137.622 1573.5118 L137.622 1574.3622 C137.622 1575.9277 138.8912 1577.1969 140.4567 1577.1969 L140.8819 1577.1969 L141 1577.1969"
                  stroke-width="0.8504" stroke-linecap="butt"
                  stroke-linejoin="bevel"/>
            <path d="M140.8819 1497.2598 L153 1497.2598 L153 1498.1101 L140.8819 1498.1101 Z"
                  stroke="none"/>
            <path fill="none"
                  d="M156 1464.9449 L155.9055 1464.9449 L155.4803 1464.9449 C153.9148 1464.9449 152.6457 1466.2141 152.6457 1467.7795 L152.6457 1468.63 L152.6457 1526.7402 L152.6457 1527.5906 C152.6457 1529.1561 153.9148 1530.4253 155.4803 1530.4253 L155.9055 1530.4253 L156 1530.4253"
                  stroke-width="0.8504" stroke-linecap="butt"
                  stroke-linejoin="bevel"/>
            <path d="M155.9055 1464.5197 L168 1464.5197 L168 1465.37 L155.9055 1465.37 Z"
                  stroke="none"/>
            <path fill="none"
                  d="M171 1436.8818 L170.9291 1436.8818 L170.5039 1436.8818 C168.9384 1436.8818 167.6693 1438.151 167.6693 1439.7164 L167.6693 1440.5669 L167.6693 1489.3228 L167.6693 1490.1731 C167.6693 1491.7386 168.9384 1493.0078 170.5039 1493.0078 L170.9291 1493.0078 L171 1493.0078"
                  stroke-width="0.8504" stroke-linecap="butt"
                  stroke-linejoin="bevel"/>
            <path d="M170.9291 1436.4567 L182.2677 1436.4567 L182.2677 1437.307 L170.9291 1437.307 Z"
                  stroke="none"/>
            <text x="185.1024" xml:space="preserve" y="1441.3779" stroke="none">&gt;HNsq0161</text><path d="M168 1455.1652 L182.2677 1455.1652 L182.2677 1456.0155 L168 1456.0155 Z"
                  stroke="none"/>
            <text x="185.1024" xml:space="preserve" y="1460.0864" stroke="none"></text>
            <path d="M168 1473.8738 L182.2677 1473.8738 L182.2677 1474.7241 L168 1474.7241 Z"
                  stroke="none"/>
            <text x="185.1024" xml:space="preserve" y="1478.795" stroke="none">&gt;HNsq0054</text><path d="M170.9291 1492.5824 L182.2677 1492.5824 L182.2677 1493.4327 L170.9291 1493.4327 Z"
                  stroke="none"/>
            <text x="185.1024" xml:space="preserve" y="1497.5037" stroke="none"></text>
            <path d="M153 1511.2913 L182.2677 1511.2913 L182.2677 1512.1416 L153 1512.1416 Z"
                  stroke="none"/>
            <text x="185.1024" xml:space="preserve" y="1516.2126" stroke="none">&gt;HNsq0170</text><path d="M155.9055 1529.9999 L182.2677 1529.9999 L182.2677 1530.8502 L155.9055 1530.8502 Z"
                  stroke="none"/>
            <text x="185.1024" xml:space="preserve" y="1534.9211" stroke="none"></text>
            <path d="M140.8819 1576.7715 L168 1576.7715 L168 1577.6218 L140.8819 1577.6218 Z"
                  stroke="none"/>
            <path fill="none"
                  d="M171 1549.1338 L170.9291 1549.1338 L170.5039 1549.1338 C168.9384 1549.1338 167.6693 1550.403 167.6693 1551.9684 L167.6693 1552.8188 L167.6693 1601.5747 L167.6693 1602.425 C167.6693 1603.9906 168.9384 1605.2598 170.5039 1605.2598 L170.9291 1605.2598 L171 1605.2598"
                  stroke-width="0.8504" stroke-linecap="butt"
                  stroke-linejoin="bevel"/>
            <path d="M170.9291 1548.7085 L182.2677 1548.7085 L182.2677 1549.5588 L170.9291 1549.5588 Z"
                  stroke="none"/>
            <text x="185.1024" xml:space="preserve" y="1553.6298" stroke="none">&gt;HNsq0168</text><path d="M168 1567.4171 L182.2677 1567.4171 L182.2677 1568.2675 L168 1568.2675 Z"
                  stroke="none"/>
            <text x="185.1024" xml:space="preserve" y="1572.3384" stroke="none"></text>
            <path d="M168 1586.1256 L182.2677 1586.1256 L182.2677 1586.976 L168 1586.976 Z"
                  stroke="none"/>
            <text x="185.1024" xml:space="preserve" y="1591.047" stroke="none">&gt;HNsq0154</text><path d="M170.9291 1604.8342 L182.2677 1604.8342 L182.2677 1605.6846 L170.9291 1605.6846 Z"
                  stroke="none"/>
            <text x="185.1024" xml:space="preserve" y="1609.7555" stroke="none"></text>
            <path d="M107 1623.5432 L182.2677 1623.5432 L182.2677 1624.3936 L107 1624.3936 Z"
                  stroke="none"/>
            <text x="185.1024" xml:space="preserve" y="1628.4645" stroke="none">&gt;HNsq0176</text><path d="M110.8346 1642.2518 L182.2677 1642.2518 L182.2677 1643.1022 L110.8346 1643.1022 Z"
                  stroke="none"/>
            <text x="185.1024" xml:space="preserve" y="1647.1731" stroke="none"></text>
            <path d="M92 1660.9606 L182.2677 1660.9606 L182.2677 1661.8109 L92 1661.8109 Z"
                  stroke="none"/>
            <text x="185.1024" xml:space="preserve" y="1665.8818" stroke="none">&gt;HNsq0164</text><path d="M95.811 1679.6692 L182.2677 1679.6692 L182.2677 1680.5195 L95.811 1680.5195 Z"
                  stroke="none"/>
            <text x="185.1024" xml:space="preserve" y="1684.5905" stroke="none"></text>
            <path d="M20.6929 2504.8967 L33 2504.8967 L33 2505.7473 L20.6929 2505.7473 Z"
                  stroke="none"/>
            <path fill="none"
                  d="M36 2259.1863 L35.7165 2259.1863 L35.2913 2259.1863 C33.7258 2259.1863 32.4567 2260.4553 32.4567 2262.021 L32.4567 2262.8713 L32.4567 2747.7729 L32.4567 2748.6233 C32.4567 2750.1887 33.7258 2751.4578 35.2913 2751.4578 L35.7165 2751.4578 L36 2751.4578"
                  stroke-width="0.8504" stroke-linecap="butt"
                  stroke-linejoin="bevel"/>
            <path d="M35.7165 2258.761 L48 2258.761 L48 2259.6116 L35.7165 2259.6116 Z"
                  stroke="none"/>
            <path fill="none"
                  d="M51 2202.1833 L50.7402 2202.1833 L50.315 2202.1833 C48.7494 2202.1833 47.4803 2203.4524 47.4803 2205.0181 L47.4803 2205.8684 L47.4803 2312.5042 L47.4803 2313.3547 C47.4803 2314.9202 48.7494 2316.1892 50.315 2316.1892 L50.7402 2316.1892 L51 2316.1892"
                  stroke-width="0.8504" stroke-linecap="butt"
                  stroke-linejoin="bevel"/>
            <path d="M50.7402 2201.7581 L63 2201.7581 L63 2202.6086 L50.7402 2202.6086 Z"
                  stroke="none"/>
            <path fill="none"
                  d="M66 2125.5947 L65.7638 2125.5947 L65.3386 2125.5947 C63.773 2125.5947 62.5039 2126.8638 62.5039 2128.4294 L62.5039 2129.2798 L62.5039 2275.0869 L62.5039 2275.9373 C62.5039 2277.5027 63.773 2278.7717 65.3386 2278.7717 L65.7638 2278.7717 L66 2278.7717"
                  stroke-width="0.8504" stroke-linecap="butt"
                  stroke-linejoin="bevel"/>
            <path d="M65.7638 2125.1694 L78 2125.1694 L78 2126.02 L65.7638 2126.02 Z"
                  stroke="none"/>
            <path fill="none"
                  d="M81 2009.8347 L80.7874 2009.8347 L80.3622 2009.8347 C78.7967 2009.8347 77.5275 2011.1039 77.5275 2012.6693 L77.5275 2013.5198 L77.5275 2237.6694 L77.5275 2238.5198 C77.5275 2240.0852 78.7967 2241.3542 80.3622 2241.3542 L80.7874 2241.3542 L81 2241.3542"
                  stroke-width="0.8504" stroke-linecap="butt"
                  stroke-linejoin="bevel"/>
            <path d="M80.7874 2009.4095 L93 2009.4095 L93 2010.2599 L80.7874 2010.2599 Z"
                  stroke="none"/>
            <path fill="none"
                  d="M96 1815.7323 L95.811 1815.7323 L95.3858 1815.7323 C93.8203 1815.7323 92.5512 1817.0015 92.5512 1818.5669 L92.5512 1819.4174 L92.5512 2200.252 L92.5512 2201.1025 C92.5512 2202.668 93.8203 2203.937 95.3858 2203.937 L95.811 2203.937 L96 2203.937"
                  stroke-width="0.8504" stroke-linecap="butt"
                  stroke-linejoin="bevel"/>
            <path d="M95.811 1815.307 L108 1815.307 L108 1816.1573 L95.811 1816.1573 Z"
                  stroke="none"/>
            <path fill="none"
                  d="M111 1698.8032 L110.8346 1698.8032 L110.4094 1698.8032 C108.8439 1698.8032 107.5748 1700.0724 107.5748 1701.6378 L107.5748 1702.4883 L107.5748 1928.9766 L107.5748 1929.8268 C107.5748 1931.3923 108.8439 1932.6615 110.4094 1932.6615 L110.8346 1932.6615 L111 1932.6615"
                  stroke-width="0.8504" stroke-linecap="butt"
                  stroke-linejoin="bevel"/>
            <path d="M110.8346 1698.3779 L182.2677 1698.3779 L182.2677 1699.2283 L110.8346 1699.2283 Z"
                  stroke="none"/>
            <text x="185.1024" xml:space="preserve" y="1703.2992" stroke="none">&gt;HNsq0194</text><path d="M107 1717.0865 L182.2677 1717.0865 L182.2677 1717.9369 L107 1717.9369 Z"
                  stroke="none"/>
            <text x="185.1024" xml:space="preserve" y="1722.0078" stroke="none"></text>
            <path d="M110.8346 1932.236 L123 1932.236 L123 1933.0863 L110.8346 1933.0863 Z"
                  stroke="none"/>
            <path fill="none"
                  d="M126 1822.7479 L125.8583 1822.7479 L125.4331 1822.7479 C123.8675 1822.7479 122.5984 1824.0171 122.5984 1825.5825 L122.5984 1826.433 L122.5984 2038.8896 L122.5984 2039.74 C122.5984 2041.3055 123.8675 2042.5747 125.4331 2042.5747 L125.8583 2042.5747 L126 2042.5747"
                  stroke-width="0.8504" stroke-linecap="butt"
                  stroke-linejoin="bevel"/>
            <path d="M125.8583 1822.3228 L138 1822.3228 L138 1823.1731 L125.8583 1823.1731 Z"
                  stroke="none"/>
            <path fill="none"
                  d="M141 1768.9604 L140.8819 1768.9604 L140.4567 1768.9604 C138.8912 1768.9604 137.622 1770.2296 137.622 1771.795 L137.622 1772.6455 L137.622 1872.8502 L137.622 1873.7006 C137.622 1875.2661 138.8912 1876.5353 140.4567 1876.5353 L140.8819 1876.5353 L141 1876.5353"
                  stroke-width="0.8504" stroke-linecap="butt"
                  stroke-linejoin="bevel"/>
            <path d="M140.8819 1768.5352 L153 1768.5352 L153 1769.3855 L140.8819 1769.3855 Z"
                  stroke="none"/>
            <path fill="none"
                  d="M156 1736.2203 L155.9055 1736.2203 L155.4803 1736.2203 C153.9148 1736.2203 152.6457 1737.4895 152.6457 1739.0549 L152.6457 1739.9054 L152.6457 1798.0156 L152.6457 1798.866 C152.6457 1800.4315 153.9148 1801.7007 155.4803 1801.7007 L155.9055 1801.7007 L156 1801.7007"
                  stroke-width="0.8504" stroke-linecap="butt"
                  stroke-linejoin="bevel"/>
            <path d="M155.9055 1735.795 L182.2677 1735.795 L182.2677 1736.6454 L155.9055 1736.6454 Z"
                  stroke="none"/>
            <text x="185.1024" xml:space="preserve" y="1740.7164" stroke="none">&gt;HNsq0208</text><path d="M153 1754.5037 L182.2677 1754.5037 L182.2677 1755.354 L153 1755.354 Z"
                  stroke="none"/>
            <text x="185.1024" xml:space="preserve" y="1759.4249" stroke="none"></text>
            <path d="M155.9055 1801.2753 L168 1801.2753 L168 1802.1256 L155.9055 1802.1256 Z"
                  stroke="none"/>
            <path fill="none"
                  d="M171 1773.6376 L170.9291 1773.6376 L170.5039 1773.6376 C168.9384 1773.6376 167.6693 1774.9067 167.6693 1776.4722 L167.6693 1777.3226 L167.6693 1826.0785 L167.6693 1826.9288 C167.6693 1828.4944 168.9384 1829.7635 170.5039 1829.7635 L170.9291 1829.7635 L171 1829.7635"
                  stroke-width="0.8504" stroke-linecap="butt"
                  stroke-linejoin="bevel"/>
            <path d="M170.9291 1773.2123 L182.2677 1773.2123 L182.2677 1774.0626 L170.9291 1774.0626 Z"
                  stroke="none"/>
            <text x="185.1024" xml:space="preserve" y="1778.1335" stroke="none">&gt;HNsq0221</text><path d="M168 1791.9209 L182.2677 1791.9209 L182.2677 1792.7712 L168 1792.7712 Z"
                  stroke="none"/>
            <text x="185.1024" xml:space="preserve" y="1796.8422" stroke="none"></text>
            <path d="M168 1810.6294 L182.2677 1810.6294 L182.2677 1811.4797 L168 1811.4797 Z"
                  stroke="none"/>
            <text x="185.1024" xml:space="preserve" y="1815.5508" stroke="none">&gt;HNsq0224</text><path d="M170.9291 1829.338 L182.2677 1829.338 L182.2677 1830.1884 L170.9291 1830.1884 Z"
                  stroke="none"/>
            <text x="185.1024" xml:space="preserve" y="1834.2594" stroke="none"></text>
            <path d="M140.8819 1876.11 L168 1876.11 L168 1876.9603 L140.8819 1876.9603 Z"
                  stroke="none"/>
            <path fill="none"
                  d="M171 1848.4723 L170.9291 1848.4723 L170.5039 1848.4723 C168.9384 1848.4723 167.6693 1849.7415 167.6693 1851.3069 L167.6693 1852.1573 L167.6693 1900.9132 L167.6693 1901.7635 C167.6693 1903.3291 168.9384 1904.5983 170.5039 1904.5983 L170.9291 1904.5983 L171 1904.5983"
                  stroke-width="0.8504" stroke-linecap="butt"
                  stroke-linejoin="bevel"/>
            <path d="M170.9291 1848.047 L182.2677 1848.047 L182.2677 1848.8973 L170.9291 1848.8973 Z"
                  stroke="none"/>
            <text x="185.1024" xml:space="preserve" y="1852.9683" stroke="none">&gt;HNsq0210</text><path d="M168 1866.7556 L182.2677 1866.7556 L182.2677 1867.606 L168 1867.606 Z"
                  stroke="none"/>
            <text x="185.1024" xml:space="preserve" y="1871.6769" stroke="none"></text>
            <path d="M168 1885.4641 L182.2677 1885.4641 L182.2677 1886.3145 L168 1886.3145 Z"
                  stroke="none"/>
            <text x="185.1024" xml:space="preserve" y="1890.3855" stroke="none">&gt;HNsq0235</text><path d="M170.9291 1904.1727 L182.2677 1904.1727 L182.2677 1905.0231 L170.9291 1905.0231 Z"
                  stroke="none"/>
            <text x="185.1024" xml:space="preserve" y="1909.0941" stroke="none"></text>
            <path d="M125.8583 2042.1494 L138 2042.1494 L138 2042.9998 L125.8583 2042.9998 Z"
                  stroke="none"/>
            <path fill="none"
                  d="M141 1984.1101 L140.8819 1984.1101 L140.4567 1984.1101 C138.8912 1984.1101 137.622 1985.3793 137.622 1986.9447 L137.622 1987.7952 L137.622 2097.3542 L137.622 2098.2046 C137.622 2099.77 138.8912 2101.0391 140.4567 2101.0391 L140.8819 2101.0391 L141 2101.0391"
                  stroke-width="0.8504" stroke-linecap="butt"
                  stroke-linejoin="bevel"/>
            <path d="M140.8819 1983.6849 L153 1983.6849 L153 1984.5353 L140.8819 1984.5353 Z"
                  stroke="none"/>
            <path fill="none"
                  d="M156 1951.37 L155.9055 1951.37 L155.4803 1951.37 C153.9148 1951.37 152.6457 1952.6392 152.6457 1954.2046 L152.6457 1955.0551 L152.6457 2013.1653 L152.6457 2014.0156 C152.6457 2015.5812 153.9148 2016.8503 155.4803 2016.8503 L155.9055 2016.8503 L156 2016.8503"
                  stroke-width="0.8504" stroke-linecap="butt"
                  stroke-linejoin="bevel"/>
            <path d="M155.9055 1950.9447 L168 1950.9447 L168 1951.795 L155.9055 1951.795 Z"
                  stroke="none"/>
            <path fill="none"
                  d="M171 1923.307 L170.9291 1923.307 L170.5039 1923.307 C168.9384 1923.307 167.6693 1924.5762 167.6693 1926.1416 L167.6693 1926.9921 L167.6693 1975.7479 L167.6693 1976.5983 C167.6693 1978.1638 168.9384 1979.433 170.5039 1979.433 L170.9291 1979.433 L171 1979.433"
                  stroke-width="0.8504" stroke-linecap="butt"
                  stroke-linejoin="bevel"/>
            <path d="M170.9291 1922.8817 L182.2677 1922.8817 L182.2677 1923.7321 L170.9291 1923.7321 Z"
                  stroke="none"/>
            <text x="185.1024" xml:space="preserve" y="1927.803" stroke="none">&gt;HNsq0220</text><path d="M168 1941.5903 L182.2677 1941.5903 L182.2677 1942.4407 L168 1942.4407 Z"
                  stroke="none"/>
            <text x="185.1024" xml:space="preserve" y="1946.5116" stroke="none"></text>
            <path d="M168 1960.2988 L182.2677 1960.2988 L182.2677 1961.1492 L168 1961.1492 Z"
                  stroke="none"/>
            <text x="185.1024" xml:space="preserve" y="1965.2202" stroke="none">&gt;HNsq0186</text><path d="M170.9291 1979.0074 L182.2677 1979.0074 L182.2677 1979.8578 L170.9291 1979.8578 Z"
                  stroke="none"/>
            <text x="185.1024" xml:space="preserve" y="1983.9288" stroke="none"></text>
            <path d="M153 1997.7164 L182.2677 1997.7164 L182.2677 1998.5668 L153 1998.5668 Z"
                  stroke="none"/>
            <text x="185.1024" xml:space="preserve" y="2002.6377" stroke="none">&gt;HNsq0187</text><path d="M155.9055 2016.425 L182.2677 2016.425 L182.2677 2017.2754 L155.9055 2017.2754 Z"
                  stroke="none"/>
            <text x="185.1024" xml:space="preserve" y="2021.3463" stroke="none"></text>
            <path d="M140.8819 2100.614 L153 2100.614 L153 2101.4646 L140.8819 2101.4646 Z"
                  stroke="none"/>
            <path fill="none"
                  d="M156 2063.6218 L155.9055 2063.6218 L155.4803 2063.6218 C153.9148 2063.6218 152.6457 2064.8909 152.6457 2066.4565 L152.6457 2067.3069 L152.6457 2134.7715 L152.6457 2135.6218 C152.6457 2137.1873 153.9148 2138.4563 155.4803 2138.4563 L155.9055 2138.4563 L156 2138.4563"
                  stroke-width="0.8504" stroke-linecap="butt"
                  stroke-linejoin="bevel"/>
            <path d="M155.9055 2063.1968 L168 2063.1968 L168 2064.0474 L155.9055 2064.0474 Z"
                  stroke="none"/>
            <path fill="none"
                  d="M171 2035.5588 L170.9291 2035.5588 L170.5039 2035.5588 C168.9384 2035.5588 167.6693 2036.828 167.6693 2038.3934 L167.6693 2039.2439 L167.6693 2087.9998 L167.6693 2088.8503 C167.6693 2090.4158 168.9384 2091.6848 170.5039 2091.6848 L170.9291 2091.6848 L171 2091.6848"
                  stroke-width="0.8504" stroke-linecap="butt"
                  stroke-linejoin="bevel"/>
            <path d="M170.9291 2035.1335 L182.2677 2035.1335 L182.2677 2035.9839 L170.9291 2035.9839 Z"
                  stroke="none"/>
            <text x="185.1024" xml:space="preserve" y="2040.0549" stroke="none">&gt;HNsq0233</text><path d="M168 2053.8423 L182.2677 2053.8423 L182.2677 2054.6929 L168 2054.6929 Z"
                  stroke="none"/>
            <text x="185.1024" xml:space="preserve" y="2058.7637" stroke="none"></text>
            <path d="M168 2072.5508 L182.2677 2072.5508 L182.2677 2073.4014 L168 2073.4014 Z"
                  stroke="none"/>
            <text x="185.1024" xml:space="preserve" y="2077.4722" stroke="none">&gt;HNsq0188</text><path d="M170.9291 2091.2593 L182.2677 2091.2593 L182.2677 2092.1099 L170.9291 2092.1099 Z"
                  stroke="none"/>
            <text x="185.1024" xml:space="preserve" y="2096.1807" stroke="none"></text>
            <path d="M155.9055 2138.0315 L168 2138.0315 L168 2138.8821 L155.9055 2138.8821 Z"
                  stroke="none"/>
            <path fill="none"
                  d="M171 2110.3936 L170.9291 2110.3936 L170.5039 2110.3936 C168.9384 2110.3936 167.6693 2111.6626 167.6693 2113.2283 L167.6693 2114.0786 L167.6693 2162.8345 L167.6693 2163.6851 C167.6693 2165.2505 168.9384 2166.5195 170.5039 2166.5195 L170.9291 2166.5195 L171 2166.5195"
                  stroke-width="0.8504" stroke-linecap="butt"
                  stroke-linejoin="bevel"/>
            <path d="M170.9291 2109.9683 L182.2677 2109.9683 L182.2677 2110.8188 L170.9291 2110.8188 Z"
                  stroke="none"/>
            <text x="185.1024" xml:space="preserve" y="2114.8896" stroke="none">&gt;HNsq0191</text><path d="M168 2128.677 L182.2677 2128.677 L182.2677 2129.5276 L168 2129.5276 Z"
                  stroke="none"/>
            <text x="185.1024" xml:space="preserve" y="2133.5981" stroke="none"></text>
            <path d="M168 2147.3855 L182.2677 2147.3855 L182.2677 2148.2361 L168 2148.2361 Z"
                  stroke="none"/>
            <text x="185.1024" xml:space="preserve" y="2152.3069" stroke="none">&gt;HNsq0192</text><path d="M170.9291 2166.094 L182.2677 2166.094 L182.2677 2166.9446 L170.9291 2166.9446 Z"
                  stroke="none"/>
            <text x="185.1024" xml:space="preserve" y="2171.0154" stroke="none"></text>
            <path d="M92 2184.803 L182.2677 2184.803 L182.2677 2185.6536 L92 2185.6536 Z"
                  stroke="none"/>
            <text x="185.1024" xml:space="preserve" y="2189.7244" stroke="none">&gt;HNsq0209</text><path d="M95.811 2203.5117 L182.2677 2203.5117 L182.2677 2204.3623 L95.811 2204.3623 Z"
                  stroke="none"/>
            <text x="185.1024" xml:space="preserve" y="2208.4329" stroke="none"></text>
            <path d="M77 2222.2205 L182.2677 2222.2205 L182.2677 2223.071 L77 2223.071 Z"
                  stroke="none"/>
            <text x="185.1024" xml:space="preserve" y="2227.1418" stroke="none">&gt;HNsq0212</text><path d="M80.7874 2240.9292 L182.2677 2240.9292 L182.2677 2241.7798 L80.7874 2241.7798 Z"
                  stroke="none"/>
            <text x="185.1024" xml:space="preserve" y="2245.8506" stroke="none"></text>
            <path d="M62 2259.6379 L182.2677 2259.6379 L182.2677 2260.4885 L62 2260.4885 Z"
                  stroke="none"/>
            <text x="185.1024" xml:space="preserve" y="2264.5593" stroke="none">&gt;HNsq0216</text><path d="M65.7638 2278.3464 L182.2677 2278.3464 L182.2677 2279.197 L65.7638 2279.197 Z"
                  stroke="none"/>
            <text x="185.1024" xml:space="preserve" y="2283.2678" stroke="none"></text>
            <path d="M47 2297.0552 L182.2677 2297.0552 L182.2677 2297.9058 L47 2297.9058 Z"
                  stroke="none"/>
            <text x="185.1024" xml:space="preserve" y="2301.9763" stroke="none">&gt;HNsq0219</text><path d="M50.7402 2315.7637 L182.2677 2315.7637 L182.2677 2316.6143 L50.7402 2316.6143 Z"
                  stroke="none"/>
            <text x="185.1024" xml:space="preserve" y="2320.6851" stroke="none"></text>
            <path d="M35.7165 2751.0327 L78 2751.0327 L78 2751.8833 L35.7165 2751.8833 Z"
                  stroke="none"/>
            <path fill="none"
                  d="M81 2550.0474 L80.7874 2550.0474 L80.3622 2550.0474 C78.7967 2550.0474 77.5275 2551.3164 77.5275 2552.8821 L77.5275 2553.7324 L77.5275 2949.1833 L77.5275 2950.0337 C77.5275 2951.5991 78.7967 2952.8682 80.3622 2952.8682 L80.7874 2952.8682 L81 2952.8682"
                  stroke-width="0.8504" stroke-linecap="butt"
                  stroke-linejoin="bevel"/>
            <path d="M80.7874 2549.6221 L93 2549.6221 L93 2550.4727 L80.7874 2550.4727 Z"
                  stroke="none"/>
            <path fill="none"
                  d="M96 2467.6123 L95.811 2467.6123 L95.3858 2467.6123 C93.8203 2467.6123 92.5512 2468.8813 92.5512 2470.447 L92.5512 2471.2974 L92.5512 2628.7974 L92.5512 2629.6477 C92.5512 2631.2131 93.8203 2632.4822 95.3858 2632.4822 L95.811 2632.4822 L96 2632.4822"
                  stroke-width="0.8504" stroke-linecap="butt"
                  stroke-linejoin="bevel"/>
            <path d="M95.811 2467.1873 L108 2467.1873 L108 2468.0378 L95.811 2468.0378 Z"
                  stroke="none"/>
            <path fill="none"
                  d="M111 2394.5317 L110.8346 2394.5317 L110.4094 2394.5317 C108.8439 2394.5317 107.5748 2395.8008 107.5748 2397.3665 L107.5748 2398.2168 L107.5748 2537.0081 L107.5748 2537.8586 C107.5748 2539.4241 108.8439 2540.6931 110.4094 2540.6931 L110.8346 2540.6931 L111 2540.6931"
                  stroke-width="0.8504" stroke-linecap="butt"
                  stroke-linejoin="bevel"/>
            <path d="M110.8346 2394.1064 L123 2394.1064 L123 2394.957 L110.8346 2394.957 Z"
                  stroke="none"/>
            <path fill="none"
                  d="M126 2334.8977 L125.8583 2334.8977 L125.4331 2334.8977 C123.8675 2334.8977 122.5984 2336.1667 122.5984 2337.7324 L122.5984 2338.5828 L122.5984 2450.4805 L122.5984 2451.3308 C122.5984 2452.8962 123.8675 2454.1653 125.4331 2454.1653 L125.8583 2454.1653 L126 2454.1653"
                  stroke-width="0.8504" stroke-linecap="butt"
                  stroke-linejoin="bevel"/>
            <path d="M125.8583 2334.4724 L182.2677 2334.4724 L182.2677 2335.323 L125.8583 2335.323 Z"
                  stroke="none"/>
            <text x="185.1024" xml:space="preserve" y="2339.3938" stroke="none">&gt;HNsq0214</text><path d="M123 2353.1812 L182.2677 2353.1812 L182.2677 2354.0317 L123 2354.0317 Z"
                  stroke="none"/>
            <text x="185.1024" xml:space="preserve" y="2358.1023" stroke="none"></text>
            <path d="M125.8583 2453.74 L138 2453.74 L138 2454.5906 L125.8583 2454.5906 Z"
                  stroke="none"/>
            <path fill="none"
                  d="M141 2405.0549 L140.8819 2405.0549 L140.4567 2405.0549 C138.8912 2405.0549 137.622 2406.324 137.622 2407.8896 L137.622 2408.74 L137.622 2499.5903 L137.622 2500.4409 C137.622 2502.0063 138.8912 2503.2754 140.4567 2503.2754 L140.8819 2503.2754 L141 2503.2754"
                  stroke-width="0.8504" stroke-linecap="butt"
                  stroke-linejoin="bevel"/>
            <path d="M140.8819 2404.6299 L153 2404.6299 L153 2405.4805 L140.8819 2405.4805 Z"
                  stroke="none"/>
            <path fill="none"
                  d="M156 2372.3149 L155.9055 2372.3149 L155.4803 2372.3149 C153.9148 2372.3149 152.6457 2373.584 152.6457 2375.1497 L152.6457 2376 L152.6457 2434.1104 L152.6457 2434.9607 C152.6457 2436.5261 153.9148 2437.7952 155.4803 2437.7952 L155.9055 2437.7952 L156 2437.7952"
                  stroke-width="0.8504" stroke-linecap="butt"
                  stroke-linejoin="bevel"/>
            <path d="M155.9055 2371.8896 L182.2677 2371.8896 L182.2677 2372.7402 L155.9055 2372.7402 Z"
                  stroke="none"/>
            <text x="185.1024" xml:space="preserve" y="2376.811" stroke="none">&gt;HNsq0227</text><path d="M153 2390.5981 L182.2677 2390.5981 L182.2677 2391.4487 L153 2391.4487 Z"
                  stroke="none"/>
            <text x="185.1024" xml:space="preserve" y="2395.5195" stroke="none"></text>
            <path d="M155.9055 2437.3699 L168 2437.3699 L168 2438.2205 L155.9055 2438.2205 Z"
                  stroke="none"/>
            <path fill="none"
                  d="M171 2409.7322 L170.9291 2409.7322 L170.5039 2409.7322 C168.9384 2409.7322 167.6693 2411.0012 167.6693 2412.5669 L167.6693 2413.4172 L167.6693 2462.1731 L167.6693 2463.0237 C167.6693 2464.5891 168.9384 2465.8582 170.5039 2465.8582 L170.9291 2465.8582 L171 2465.8582"
                  stroke-width="0.8504" stroke-linecap="butt"
                  stroke-linejoin="bevel"/>
            <path d="M170.9291 2409.3069 L182.2677 2409.3069 L182.2677 2410.1575 L170.9291 2410.1575 Z"
                  stroke="none"/>
            <text x="185.1024" xml:space="preserve" y="2414.2283" stroke="none">&gt;HNsq0228</text><path d="M168 2428.0154 L182.2677 2428.0154 L182.2677 2428.866 L168 2428.866 Z"
                  stroke="none"/>
            <text x="185.1024" xml:space="preserve" y="2432.9368" stroke="none"></text>
            <path d="M168 2446.7241 L182.2677 2446.7241 L182.2677 2447.5747 L168 2447.5747 Z"
                  stroke="none"/>
            <text x="185.1024" xml:space="preserve" y="2451.6453" stroke="none">&gt;HNsq0189</text><path d="M170.9291 2465.4326 L182.2677 2465.4326 L182.2677 2466.2832 L170.9291 2466.2832 Z"
                  stroke="none"/>
            <text x="185.1024" xml:space="preserve" y="2470.354" stroke="none"></text>
            <path d="M138 2484.1416 L182.2677 2484.1416 L182.2677 2484.9922 L138 2484.9922 Z"
                  stroke="none"/>
            <text x="185.1024" xml:space="preserve" y="2489.063" stroke="none">&gt;HNsq0234</text><path d="M140.8819 2502.8501 L182.2677 2502.8501 L182.2677 2503.7007 L140.8819 2503.7007 Z"
                  stroke="none"/>
            <text x="185.1024" xml:space="preserve" y="2507.7715" stroke="none"></text>
            <path d="M107 2521.5591 L182.2677 2521.5591 L182.2677 2522.4097 L107 2522.4097 Z"
                  stroke="none"/>
            <text x="185.1024" xml:space="preserve" y="2526.4805" stroke="none">&gt;HNsq0222</text><path d="M110.8346 2540.2676 L182.2677 2540.2676 L182.2677 2541.1182 L110.8346 2541.1182 Z"
                  stroke="none"/>
            <text x="185.1024" xml:space="preserve" y="2545.189" stroke="none"></text>
            <path d="M95.811 2632.0571 L108 2632.0571 L108 2632.9077 L95.811 2632.9077 Z"
                  stroke="none"/>
            <path fill="none"
                  d="M111 2559.4016 L110.8346 2559.4016 L110.4094 2559.4016 C108.8439 2559.4016 107.5748 2560.6707 107.5748 2562.2363 L107.5748 2563.0867 L107.5748 2701.8779 L107.5748 2702.7285 C107.5748 2704.2939 108.8439 2705.563 110.4094 2705.563 L110.8346 2705.563 L111 2705.563"
                  stroke-width="0.8504" stroke-linecap="butt"
                  stroke-linejoin="bevel"/>
            <path d="M110.8346 2558.9766 L182.2677 2558.9766 L182.2677 2559.8271 L110.8346 2559.8271 Z"
                  stroke="none"/>
            <text x="185.1024" xml:space="preserve" y="2563.8977" stroke="none">&gt;HNsq0218</text><path d="M107 2577.6851 L182.2677 2577.6851 L182.2677 2578.5356 L107 2578.5356 Z"
                  stroke="none"/>
            <text x="185.1024" xml:space="preserve" y="2582.6064" stroke="none"></text>
            <path d="M110.8346 2705.1377 L123 2705.1377 L123 2705.9883 L110.8346 2705.9883 Z"
                  stroke="none"/>
            <path fill="none"
                  d="M126 2645.9292 L125.8583 2645.9292 L125.4331 2645.9292 C123.8675 2645.9292 122.5984 2647.1982 122.5984 2648.7639 L122.5984 2649.6143 L122.5984 2761.512 L122.5984 2762.3623 C122.5984 2763.9277 123.8675 2765.1968 125.4331 2765.1968 L125.8583 2765.1968 L126 2765.1968"
                  stroke-width="0.8504" stroke-linecap="butt"
                  stroke-linejoin="bevel"/>
            <path d="M125.8583 2645.5039 L138 2645.5039 L138 2646.3545 L125.8583 2646.3545 Z"
                  stroke="none"/>
            <path fill="none"
                  d="M141 2596.8188 L140.8819 2596.8188 L140.4567 2596.8188 C138.8912 2596.8188 137.622 2598.0879 137.622 2599.6536 L137.622 2600.5039 L137.622 2691.3542 L137.622 2692.2048 C137.622 2693.7703 138.8912 2695.0393 140.4567 2695.0393 L140.8819 2695.0393 L141 2695.0393"
                  stroke-width="0.8504" stroke-linecap="butt"
                  stroke-linejoin="bevel"/>
            <path d="M140.8819 2596.3936 L182.2677 2596.3936 L182.2677 2597.2441 L140.8819 2597.2441 Z"
                  stroke="none"/>
            <text x="185.1024" xml:space="preserve" y="2601.3149" stroke="none">&gt;HNsq0232</text><path d="M138 2615.1023 L182.2677 2615.1023 L182.2677 2615.9529 L138 2615.9529 Z"
                  stroke="none"/>
            <text x="185.1024" xml:space="preserve" y="2620.0234" stroke="none"></text>
            <path d="M140.8819 2694.614 L153 2694.614 L153 2695.4646 L140.8819 2695.4646 Z"
                  stroke="none"/>
            <path fill="none"
                  d="M156 2662.2991 L155.9055 2662.2991 L155.4803 2662.2991 C153.9148 2662.2991 152.6457 2663.5681 152.6457 2665.1338 L152.6457 2665.9841 L152.6457 2724.0945 L152.6457 2724.9448 C152.6457 2726.5103 153.9148 2727.7793 155.4803 2727.7793 L155.9055 2727.7793 L156 2727.7793"
                  stroke-width="0.8504" stroke-linecap="butt"
                  stroke-linejoin="bevel"/>
            <path d="M155.9055 2661.8738 L168 2661.8738 L168 2662.7244 L155.9055 2662.7244 Z"
                  stroke="none"/>
            <path fill="none"
                  d="M171 2634.2361 L170.9291 2634.2361 L170.5039 2634.2361 C168.9384 2634.2361 167.6693 2635.5051 167.6693 2637.0708 L167.6693 2637.9211 L167.6693 2686.677 L167.6693 2687.5276 C167.6693 2689.093 168.9384 2690.3621 170.5039 2690.3621 L170.9291 2690.3621 L171 2690.3621"
                  stroke-width="0.8504" stroke-linecap="butt"
                  stroke-linejoin="bevel"/>
            <path d="M170.9291 2633.8108 L182.2677 2633.8108 L182.2677 2634.6614 L170.9291 2634.6614 Z"
                  stroke="none"/>
            <text x="185.1024" xml:space="preserve" y="2638.7322" stroke="none">&gt;HNsq0238</text><path d="M168 2652.5195 L182.2677 2652.5195 L182.2677 2653.3701 L168 2653.3701 Z"
                  stroke="none"/>
            <text x="185.1024" xml:space="preserve" y="2657.4407" stroke="none"></text>
            <path d="M168 2671.228 L182.2677 2671.228 L182.2677 2672.0786 L168 2672.0786 Z"
                  stroke="none"/>
            <text x="185.1024" xml:space="preserve" y="2676.1494" stroke="none">&gt;HNsq0193</text><path d="M170.9291 2689.9365 L182.2677 2689.9365 L182.2677 2690.7871 L170.9291 2690.7871 Z"
                  stroke="none"/>
            <text x="185.1024" xml:space="preserve" y="2694.8579" stroke="none"></text>
            <path d="M153 2708.6455 L182.2677 2708.6455 L182.2677 2709.4961 L153 2709.4961 Z"
                  stroke="none"/>
            <text x="185.1024" xml:space="preserve" y="2713.5669" stroke="none">&gt;HNsq0185</text><path d="M155.9055 2727.3542 L182.2677 2727.3542 L182.2677 2728.2048 L155.9055 2728.2048 Z"
                  stroke="none"/>
            <text x="185.1024" xml:space="preserve" y="2732.2754" stroke="none"></text>
            <path d="M123 2746.063 L182.2677 2746.063 L182.2677 2746.9136 L123 2746.9136 Z"
                  stroke="none"/>
            <text x="185.1024" xml:space="preserve" y="2750.9841" stroke="none">&gt;HNsq0237</text><path d="M125.8583 2764.7715 L182.2677 2764.7715 L182.2677 2765.6221 L125.8583 2765.6221 Z"
                  stroke="none"/>
            <text x="185.1024" xml:space="preserve" y="2769.6929" stroke="none"></text>
            <path d="M80.7874 2952.4431 L108 2952.4431 L108 2953.2937 L80.7874 2953.2937 Z"
                  stroke="none"/>
            <path fill="none"
                  d="M111 2916.0356 L110.8346 2916.0356 L110.4094 2916.0356 C108.8439 2916.0356 107.5748 2917.3047 107.5748 2918.8704 L107.5748 2919.7207 L107.5748 2986.0161 L107.5748 2986.8665 C107.5748 2988.4319 108.8439 2989.7009 110.4094 2989.7009 L110.8346 2989.7009 L111 2989.7009"
                  stroke-width="0.8504" stroke-linecap="butt"
                  stroke-linejoin="bevel"/>
            <path d="M110.8346 2915.6104 L123 2915.6104 L123 2916.4609 L110.8346 2916.4609 Z"
                  stroke="none"/>
            <path fill="none"
                  d="M126 2879.7876 L125.8583 2879.7876 L125.4331 2879.7876 C123.8675 2879.7876 122.5984 2881.0566 122.5984 2882.6223 L122.5984 2883.4727 L122.5984 2948.5986 L122.5984 2949.449 C122.5984 2951.0144 123.8675 2952.2834 125.4331 2952.2834 L125.8583 2952.2834 L126 2952.2834"
                  stroke-width="0.8504" stroke-linecap="butt"
                  stroke-linejoin="bevel"/>
            <path d="M125.8583 2879.3623 L138 2879.3623 L138 2880.2129 L125.8583 2880.2129 Z"
                  stroke="none"/>
            <path fill="none"
                  d="M141 2844.709 L140.8819 2844.709 L140.4567 2844.709 C138.8912 2844.709 137.622 2845.978 137.622 2847.5437 L137.622 2848.394 L137.622 2911.1814 L137.622 2912.032 C137.622 2913.5974 138.8912 2914.8665 140.4567 2914.8665 L140.8819 2914.8665 L141 2914.8665"
                  stroke-width="0.8504" stroke-linecap="butt"
                  stroke-linejoin="bevel"/>
            <path d="M140.8819 2844.2837 L153 2844.2837 L153 2845.1343 L140.8819 2845.1343 Z"
                  stroke="none"/>
            <path fill="none"
                  d="M156 2811.9688 L155.9055 2811.9688 L155.4803 2811.9688 C153.9148 2811.9688 152.6457 2813.2378 152.6457 2814.8035 L152.6457 2815.6538 L152.6457 2873.7642 L152.6457 2874.6145 C152.6457 2876.1799 153.9148 2877.449 155.4803 2877.449 L155.9055 2877.449 L156 2877.449"
                  stroke-width="0.8504" stroke-linecap="butt"
                  stroke-linejoin="bevel"/>
            <path d="M155.9055 2811.5435 L168 2811.5435 L168 2812.394 L155.9055 2812.394 Z"
                  stroke="none"/>
            <path fill="none"
                  d="M171 2783.9058 L170.9291 2783.9058 L170.5039 2783.9058 C168.9384 2783.9058 167.6693 2785.1748 167.6693 2786.7405 L167.6693 2787.5908 L167.6693 2836.3467 L167.6693 2837.1973 C167.6693 2838.7627 168.9384 2840.0317 170.5039 2840.0317 L170.9291 2840.0317 L171 2840.0317"
                  stroke-width="0.8504" stroke-linecap="butt"
                  stroke-linejoin="bevel"/>
            <path d="M170.9291 2783.4805 L182.2677 2783.4805 L182.2677 2784.3311 L170.9291 2784.3311 Z"
                  stroke="none"/>
            <text x="185.1024" xml:space="preserve" y="2788.4019" stroke="none">&gt;HNsq0215</text><path d="M168 2802.189 L182.2677 2802.189 L182.2677 2803.0396 L168 2803.0396 Z"
                  stroke="none"/>
            <text x="185.1024" xml:space="preserve" y="2807.1104" stroke="none"></text>
            <path d="M168 2820.8977 L182.2677 2820.8977 L182.2677 2821.7483 L168 2821.7483 Z"
                  stroke="none"/>
            <text x="185.1024" xml:space="preserve" y="2825.8188" stroke="none">&gt;HNsq0226</text><path d="M170.9291 2839.6062 L182.2677 2839.6062 L182.2677 2840.4568 L170.9291 2840.4568 Z"
                  stroke="none"/>
            <text x="185.1024" xml:space="preserve" y="2844.5276" stroke="none"></text>
            <path d="M153 2858.3152 L182.2677 2858.3152 L182.2677 2859.1658 L153 2859.1658 Z"
                  stroke="none"/>
            <text x="185.1024" xml:space="preserve" y="2863.2366" stroke="none">&gt;HNsq0231</text><path d="M155.9055 2877.0237 L182.2677 2877.0237 L182.2677 2877.8743 L155.9055 2877.8743 Z"
                  stroke="none"/>
            <text x="185.1024" xml:space="preserve" y="2881.9451" stroke="none"></text>
            <path d="M138 2895.7324 L182.2677 2895.7324 L182.2677 2896.583 L138 2896.583 Z"
                  stroke="none"/>
            <text x="185.1024" xml:space="preserve" y="2900.6536" stroke="none">&gt;HNsq0236</text><path d="M140.8819 2914.4412 L182.2677 2914.4412 L182.2677 2915.2917 L140.8819 2915.2917 Z"
                  stroke="none"/>
            <text x="185.1024" xml:space="preserve" y="2919.3623" stroke="none"></text>
            <path d="M123 2933.1501 L182.2677 2933.1501 L182.2677 2934.0007 L123 2934.0007 Z"
                  stroke="none"/>
            <text x="185.1024" xml:space="preserve" y="2938.0713" stroke="none">&gt;HNsq0217</text><path d="M125.8583 2951.8589 L182.2677 2951.8589 L182.2677 2952.7095 L125.8583 2952.7095 Z"
                  stroke="none"/>
            <text x="185.1024" xml:space="preserve" y="2956.78" stroke="none"></text>
            <path d="M107 2970.5671 L182.2677 2970.5671 L182.2677 2971.4177 L107 2971.4177 Z"
                  stroke="none"/>
            <text x="185.1024" xml:space="preserve" y="2975.4883" stroke="none">&gt;HNsq0223</text><path d="M110.8346 2989.2761 L182.2677 2989.2761 L182.2677 2990.1267 L110.8346 2990.1267 Z"
                  stroke="none"/>
            <text x="185.1024" xml:space="preserve" y="2994.1973" stroke="none"></text>
        </g>
    </g>
</svg>
